<?xml version="1.0" encoding="utf-8"?>
<!-- Generator: Adobe Illustrator 19.2.1, SVG Export Plug-In . SVG Version: 6.00 Build 0)  -->
<svg version="1.1" id="layer" xmlns="http://www.w3.org/2000/svg" xmlns:xlink="http://www.w3.org/1999/xlink" x="0px" y="0px"
	 viewBox="0 0 652 652" style="enable-background:new 0 0 652 652;" xml:space="preserve">
<g id="Ebene_1">
	<g>
		<path d="M410.1,276.2c-1.5,4.6-2.9,9.8-5.2,14.3c7.5-2.9,17.2-2.9,25.5-5.2C424.4,281.4,414.5,281.4,410.1,276.2z"/>
		<path d="M390.7,326.4c-15.8,0.6-32.3,3.7-48.1,3.7c2.9-12.8,8.2-24.7,10.5-35.9c-10.5,13.5-28.5,25.5-35.9,42.8
			c-4.5,12,4.6,18,15,18c23.3,0,41.3-19.5,65.3-19.5c2.9-6.8,0.8-15-2.3-19.5C393.7,319.6,393,323.4,390.7,326.4z"/>
		<path d="M421,261.3c-0.2,0.1-0.5,0.3-0.7,0.4C420.3,261.7,420.8,261.7,421,261.3z"/>
		<path d="M621.9,253.6c-57.1-9-111.8-26.9-178.5-22.7c-4.1,0-9,0.8-13.1,0.8c-5.8,0-10.7-3.3-16.4-4c-28.7-4.9-54.7,4.1-74.3,13.1
			c-4,1.7-11.4,7.3-15.5,7.3c-4.9,0-13.1-4.9-19.6-6.5c-28.5-8.2-71-18.8-93-1.7c-27.8-4.1-53,2.4-74.3,8.9
			c-0.9-16.4-16.4-26.1-34.3-21.2c-12.3,3.3-22.1,9.8-34.3,14.7c-23.6,9-48.2,28.5-46.5,59.6c0.9,14.7,7.4,26.1,11.4,36.7
			c4.9,10.6,9,19.6,16.4,31.8c-1.7,3.3-3.3,5.8-4,9.8c-4,34.2,41.6,35.1,66.1,25.3c21.2-9,43.3-24.5,58-35.9
			c-11.4,51.4,68.5,53.9,88.9,27.8c29.4,21.1,90.5,18.8,121.6,0.8c27.7,22.8,90.5,14.6,128.9,5.7c19.6-4,36.7-8.2,49.8-17.1
			c13.8-9.8,22-24.5,25.3-43.3c-2.5-7.4-7.4-12.3-11.4-18c2.4-4,2.4-12.2,1.7-18.8c17.1-12.2,31.1-31.1,43.3-46.5
			C619.5,258.5,622.6,256,621.9,253.6z M579.3,273c-11.4,13.1-24.5,22.9-48.2,24.5c-17.1,0.9-34.2-2.4-52.2-2.4c-4,2.5-4,9-7.3,13.1
			c24.5,4.9,40.9-8.9,64.5-7.3c8.2,0.8,16.4,4,17.1,10.6c0.9,9.8-8.9,18.8-17.1,22c-17.1,6.5-47.3,3.3-68.5,6.5
			c-7.4,1.7-16.4,4.9-14.7,9.8c0.8,3.3,12.2,5.7,17.1,5.7c27.8,2.4,48.2-8.2,69.4-11.4c7.3-0.9,18-0.9,22,2.4
			c-4.1,26.1-25.3,30.2-51.4,36.7c-28.5,7.4-63.6,15.5-98.7,8.2c-14-3.3-20.4-4.9-18-22C372,382.3,332,401.1,292,390.5
			c-18.8-4.9-35.9-11.4-35.9-35.1c-2.5,5.8-4.9,11.4-8.2,18c-2.4,4.9-4,13.1-8.9,16.4c-8.9,7.4-44.1,6.5-48.2-4
			c-3.3-9.8,4.1-31.1,6.5-37.6c6.5-18,15.5-28.5,10.6-49.8c-4.9,2.5-8.2,7.4-11.4,11.4c-20.4,22.9-40,48.2-68.5,64.5
			c-13,7.4-27.7,16.4-45.7,16.4c-6.5,0-12.2-0.9-15.5-4.9c0-7.3,7.4-8.9,9.8-13.8c-10.7-14.6-18.8-30.2-26.1-48.9
			c-3.3-8.2-8.2-16.4-6.5-28.5c2.4-21.2,23.6-28.7,42.4-35.9c9.8-4,18.8-12.2,28.5-10.6c4.1,9.8,0,20.5-2.4,31.1
			c-4,16.2-8.1,34.2-4,53.8c6.5-2.5,10.7-8.2,14.7-14.7c2.5-5.7,9-13.8,9.8-20.4c0.8-6.5-3.3-13.1-1.7-19.6
			c3.3-10.7,27-14,37.6-16.4c11.4-2.4,23.6-4,36.7-2.4c4.1,0.8,8.2,2.4,11.4,2.4s6.5-5.7,9.8-7.3c12.2-7.3,33.5-1.7,48.9,1.7
			c10.6,2.5,21.2,5.8,31.8,8.2c-4.9,6.5-10.7,13.1-16.4,20.4c-4.9,7.4-9.8,14.7-14.7,22.9c13.1-13.1,31.1-26.1,51.4-37.6
			c25.3-14,60.4-31.8,95.4-19.6c0,4-1.7,7.3-2.4,10.6c0,0.2,0,0.3-0.1,0.4c4.7-2.7,9.5-9.5,15.7-10.2c50.5-5.7,106,10.7,145.9,16.2
			C583.3,269.8,580.1,271.4,579.3,273z"/>
	</g>
</g>
<g id="Ebene_2">
</g>
</svg>
